<?xml version="1.0" encoding="UTF-8" standalone="no"?>
<!-- Created with Inkscape (http://www.inkscape.org/) -->

<svg
   width="190mm"
   height="120mm"
   viewBox="0 0 190 120"
   version="1.1"
   id="svg1"
   inkscape:version="1.3.2 (091e20e, 2023-11-25)"
   sodipodi:docname="grandbot-buttons.svg"
   xmlns:inkscape="http://www.inkscape.org/namespaces/inkscape"
   xmlns:sodipodi="http://sodipodi.sourceforge.net/DTD/sodipodi-0.dtd"
   xmlns="http://www.w3.org/2000/svg"
   xmlns:svg="http://www.w3.org/2000/svg">
  <sodipodi:namedview
     id="namedview1"
     pagecolor="#505050"
     bordercolor="#eeeeee"
     borderopacity="1"
     inkscape:showpageshadow="0"
     inkscape:pageopacity="0"
     inkscape:pagecheckerboard="0"
     inkscape:deskcolor="#505050"
     inkscape:document-units="mm"
     inkscape:zoom="0.6287004"
     inkscape:cx="337.99883"
     inkscape:cy="327.66004"
     inkscape:window-width="1920"
     inkscape:window-height="1035"
     inkscape:window-x="1280"
     inkscape:window-y="23"
     inkscape:window-maximized="1"
     inkscape:current-layer="layer1" />
  <defs
     id="defs1">
    <rect
       x="545.56989"
       y="42.945732"
       width="173.37352"
       height="74.757385"
       id="rect19" />
    <inkscape:path-effect
       effect="fillet_chamfer"
       id="path-effect9"
       is_visible="true"
       lpeversion="1"
       nodesatellites_param="F,0,0,1,0,2.6458333,0,1 @ F,0,0,1,0,2.6458333,0,1 @ F,0,0,1,0,2.6458333,0,1 @ F,0,0,1,0,2.6458333,0,1"
       radius="10"
       unit="px"
       method="auto"
       mode="F"
       chamfer_steps="1"
       flexible="false"
       use_knot_distance="true"
       apply_no_radius="true"
       apply_with_radius="true"
       only_selected="false"
       hide_knots="false" />
    <inkscape:path-effect
       effect="fillet_chamfer"
       id="path-effect8"
       is_visible="true"
       lpeversion="1"
       nodesatellites_param="F,0,0,1,0,2.6458333,0,1 @ F,0,0,1,0,2.6458333,0,1 @ F,0,0,1,0,2.6458333,0,1 @ F,0,0,1,0,2.6458333,0,1"
       radius="10"
       unit="px"
       method="auto"
       mode="F"
       chamfer_steps="1"
       flexible="false"
       use_knot_distance="true"
       apply_no_radius="true"
       apply_with_radius="true"
       only_selected="false"
       hide_knots="false" />
    <inkscape:path-effect
       effect="fillet_chamfer"
       id="path-effect7"
       is_visible="true"
       lpeversion="1"
       nodesatellites_param="F,0,0,1,0,5.2916667,0,1 @ F,0,0,1,0,5.2916667,0,1 @ F,0,0,1,0,5.2916667,0,1 @ F,0,0,1,0,5.2916667,0,1"
       radius="20"
       unit="px"
       method="auto"
       mode="F"
       chamfer_steps="1"
       flexible="false"
       use_knot_distance="true"
       apply_no_radius="true"
       apply_with_radius="true"
       only_selected="false"
       hide_knots="false" />
    <rect
       x="545.56989"
       y="42.945732"
       width="173.37352"
       height="74.757385"
       id="rect20" />
    <rect
       x="545.56989"
       y="42.945732"
       width="173.37352"
       height="74.757385"
       id="rect21" />
    <rect
       x="545.56989"
       y="42.945732"
       width="173.37352"
       height="74.757385"
       id="rect22" />
    <rect
       x="545.56989"
       y="42.945732"
       width="173.37352"
       height="74.757385"
       id="rect23" />
    <rect
       x="545.56989"
       y="42.945732"
       width="241.76859"
       height="66.804474"
       id="rect24" />
    <filter
       style="color-interpolation-filters:sRGB"
       inkscape:label="Drop Shadow"
       id="filter65"
       x="-0.082000003"
       y="-0.082000003"
       width="1.184"
       height="1.184">
      <feFlood
         result="flood"
         in="SourceGraphic"
         flood-opacity="0.709804"
         flood-color="rgb(0,0,0)"
         id="feFlood64" />
      <feGaussianBlur
         result="blur"
         in="SourceGraphic"
         stdDeviation="3.000000"
         id="feGaussianBlur64" />
      <feOffset
         result="offset"
         in="blur"
         dx="2.000000"
         dy="2.000000"
         id="feOffset64" />
      <feComposite
         result="comp1"
         operator="in"
         in="flood"
         in2="offset"
         id="feComposite64" />
      <feComposite
         result="comp2"
         operator="over"
         in="SourceGraphic"
         in2="comp1"
         id="feComposite65" />
    </filter>
  </defs>
  <g
     inkscape:label="Layer 1"
     inkscape:groupmode="layer"
     id="layer1">
    <path
       id="rect13"
       style="fill:#ffffff;stroke-width:0.999996;fill-opacity:1"
       d="M 0,0 H 190 V 120 H 0 Z" />
    <path
       id="rect1"
       d="m 13.708501,8.8376732 89.416669,0 a 5.2916667,5.2916667 45 0 1 5.29166,5.2916668 v 89.41667 a 5.2916667,5.2916667 135 0 1 -5.29166,5.29166 H 13.708501 A 5.2916667,5.2916667 45 0 1 8.4168339,103.54601 V 14.12934 A 5.2916667,5.2916667 135 0 1 13.708501,8.8376732 Z"
       style="fill:#0d0208;fill-opacity:1;stroke:#000000;stroke-width:2;stroke-dasharray:none;stroke-opacity:1;filter:url(#filter65)" />
    <path
       id="rect2"
       transform="matrix(1,0,0,1.5,3.6666667e-8,-15.283547)"
       d="m 30.000892,21.042088 h 14.708333 a 2.6458333,2.6458333 45 0 1 2.645834,2.645833 v 14.708333 a 2.6458333,2.6458333 135 0 1 -2.645834,2.645834 H 30.000892 A 2.6458333,2.6458333 45 0 1 27.355059,38.396254 V 23.687921 a 2.6458333,2.6458333 135 0 1 2.645833,-2.645833 z"
       style="fill:#0d0208;fill-opacity:1;stroke:#00ff41;stroke-width:1.63299;stroke-dasharray:none;stroke-opacity:1" />
    <path
       id="rect3"
       transform="matrix(1,0,0,1.5,3.6666667e-8,-15.914803)"
       d="m 72.505895,21.462925 h 14.708333 a 2.6458333,2.6458333 45 0 1 2.645834,2.645833 v 14.708334 a 2.6458333,2.6458333 135 0 1 -2.645834,2.645833 H 72.505895 A 2.6458333,2.6458333 45 0 1 69.860062,38.817092 V 24.108758 a 2.6458333,2.6458333 135 0 1 2.645833,-2.645833 z"
       style="fill:#0d0208;fill-opacity:1;stroke:#00ff41;stroke-width:1.63299;stroke-dasharray:none;stroke-opacity:1" />
    <path
       id="path3"
       style="fill:none;stroke:#ffffff"
       d="m 40.821644,65.332558 a 5.6813626,5.6813626 0 0 1 -5.681362,5.681362 5.6813626,5.6813626 0 0 1 -5.681363,-5.681362 5.6813626,5.6813626 0 0 1 5.681363,-5.681363 5.6813626,5.6813626 0 0 1 5.681362,5.681363 z" />
    <path
       id="circle3"
       style="fill:none;stroke:#ffffff"
       d="m 53.4469,75.393272 a 5.6813626,5.6813626 0 0 1 -5.681363,5.681363 5.6813626,5.6813626 0 0 1 -5.681362,-5.681363 5.6813626,5.6813626 0 0 1 5.681362,-5.681362 5.6813626,5.6813626 0 0 1 5.681363,5.681362 z" />
    <path
       id="circle4"
       style="fill:none;stroke:#ffffff"
       d="m 40.821644,87.432991 a 5.6813626,5.6813626 0 0 1 -5.681362,5.681363 5.6813626,5.6813626 0 0 1 -5.681363,-5.681363 5.6813626,5.6813626 0 0 1 5.681363,-5.681363 5.6813626,5.6813626 0 0 1 5.681362,5.681363 z" />
    <path
       id="circle5"
       style="fill:none;stroke:#ffffff"
       d="m 98.164433,71.682571 a 5.6813626,5.6813626 0 0 1 -5.681363,5.681363 5.6813626,5.6813626 0 0 1 -5.681362,-5.681363 5.6813626,5.6813626 0 0 1 5.681362,-5.681362 5.6813626,5.6813626 0 0 1 5.681363,5.681362 z" />
    <path
       id="circle6"
       style="fill:none;stroke:#ffffff"
       d="m 85.960026,84.282898 a 5.6813626,5.6813626 0 0 1 -5.681362,5.681363 5.6813626,5.6813626 0 0 1 -5.681363,-5.681363 5.6813626,5.6813626 0 0 1 5.681363,-5.681363 5.6813626,5.6813626 0 0 1 5.681362,5.681363 z" />
    <path
       id="circle7"
       style="fill:none;stroke:#ffffff"
       d="m 27.992201,75.393272 a 5.6813626,5.6813626 0 0 1 -5.681362,5.681363 5.6813626,5.6813626 0 0 1 -5.681363,-5.681363 5.6813626,5.6813626 0 0 1 5.681363,-5.681362 5.6813626,5.6813626 0 0 1 5.681362,5.681362 z" />
    <path
       d="m 83.537413,86.991284 -0.35829,0.296278 Q 82.33852,86.695006 81.518588,86.10934 80.705546,85.523674 80.299026,85.192945 80.044089,84.99313 79.920065,84.758864 q -0.124023,-0.234267 -0.124023,-0.571886 0,-0.330729 0.117133,-0.551215 0.124023,-0.220486 0.385851,-0.434081 0.461642,-0.378961 1.212672,-0.909505 0.75103,-0.537434 1.667425,-1.192002 l 0.35829,0.296278 -2.122177,2.818086 z m -3.024792,0 -0.358289,0.296278 Q 79.313729,86.695006 78.493797,86.10934 77.680755,85.523674 77.274234,85.192945 77.019297,84.99313 76.895274,84.758864 76.77125,84.524597 76.77125,84.186978 q 0,-0.330729 0.117134,-0.551215 0.124023,-0.220486 0.38585,-0.434081 0.461642,-0.378961 1.212673,-0.909505 0.75103,-0.537434 1.667425,-1.192002 l 0.358289,0.296278 -2.122177,2.818086 z"
       id="text9"
       style="font-weight:bold;font-size:14.1111px;font-family:Georgia;-inkscape-font-specification:'Georgia Bold';fill:#fdf7fa"
       aria-label="« " />
    <path
       d="m -89.592058,-68.808284 -0.35829,0.296278 q -0.840602,-0.592556 -1.660534,-1.178222 -0.813042,-0.585666 -1.219563,-0.916395 -0.254937,-0.199815 -0.378961,-0.434082 -0.124023,-0.234266 -0.124023,-0.571885 0,-0.330729 0.117133,-0.551215 0.124024,-0.220486 0.385851,-0.434082 0.461642,-0.37896 1.212672,-0.909504 0.751031,-0.537435 1.667425,-1.192002 l 0.35829,0.296278 -2.122177,2.818086 z m -3.024792,0 -0.358289,0.296278 q -0.840603,-0.592556 -1.660535,-1.178222 -0.813042,-0.585666 -1.219563,-0.916395 -0.254937,-0.199815 -0.37896,-0.434082 -0.124023,-0.234266 -0.124023,-0.571885 0,-0.330729 0.117133,-0.551215 0.124023,-0.220486 0.38585,-0.434082 0.461643,-0.37896 1.212673,-0.909504 0.75103,-0.537435 1.667425,-1.192002 l 0.358289,0.296278 -2.122177,2.818086 z"
       id="text10"
       style="font-weight:bold;font-size:14.1111px;font-family:Georgia;-inkscape-font-specification:'Georgia Bold';fill:#fdf7fa"
       transform="scale(-1)"
       aria-label="« " />
    <path
       style="font-weight:bold;font-size:14.1111px;font-family:Georgia;-inkscape-font-specification:'Georgia Bold';fill:#fdf7fa"
       d="m 23.86824,78.190691 -0.35829,0.296278 q -0.840602,-0.592556 -1.660534,-1.178221 -0.813042,-0.585666 -1.219563,-0.916395 -0.254937,-0.199816 -0.37896,-0.434082 -0.124024,-0.234266 -0.124024,-0.571885 0,-0.330729 0.117133,-0.551215 0.124024,-0.220486 0.385851,-0.434082 0.461642,-0.37896 1.212673,-0.909504 0.75103,-0.537435 1.667424,-1.192002 l 0.35829,0.296278 -2.122177,2.818086 z"
       id="path11" />
    <path
       style="font-weight:bold;font-size:14.1111px;font-family:Georgia;-inkscape-font-specification:'Georgia Bold';fill:#fdf7fa"
       d="m 46.245363,72.595861 0.35829,-0.296278 q 0.840603,0.592556 1.660535,1.178221 0.813042,0.585666 1.219563,0.916395 0.254937,0.199816 0.37896,0.434082 0.124023,0.234266 0.124023,0.571885 0,0.330729 -0.117133,0.551215 -0.124023,0.220486 -0.38585,0.434082 -0.461643,0.37896 -1.212673,0.909504 -0.75103,0.537435 -1.667425,1.192002 l -0.35829,-0.296278 2.122178,-2.818086 z"
       id="text11" />
    <path
       style="font-weight:bold;font-size:14.1111px;font-family:Georgia;-inkscape-font-specification:'Georgia Bold';fill:#fdf7fa"
       d="M 32.342867,66.742919 32.046589,66.38463 q 0.592556,-0.840603 1.17822,-1.660534 0.585667,-0.813042 0.916395,-1.219563 0.199816,-0.254938 0.434082,-0.37896 0.234267,-0.124024 0.571885,-0.124024 0.330729,0 0.551215,0.117133 0.220486,0.124023 0.434082,0.385851 0.37896,0.461642 0.909504,1.212673 0.537435,0.75103 1.192002,1.667424 l -0.296278,0.358289 -2.818086,-2.122176 z"
       id="path12" />
    <path
       style="font-weight:bold;font-size:14.1111px;font-family:Georgia;-inkscape-font-specification:'Georgia Bold';fill:#fdf7fa"
       d="m 37.937696,85.727 0.296278,0.358289 q -0.592556,0.840603 -1.17822,1.660534 -0.585667,0.813042 -0.916395,1.219563 -0.199816,0.254938 -0.434082,0.37896 -0.234267,0.124024 -0.571885,0.124024 -0.330729,0 -0.551215,-0.117133 -0.220486,-0.124023 -0.434082,-0.385851 -0.37896,-0.461642 -0.909504,-1.212673 -0.537435,-0.75103 -1.192002,-1.667424 l 0.296278,-0.358289 2.818086,2.122176 z"
       id="path13" />
    <g
       id="g30"
       transform="translate(4.2333335)">
      <g
         id="g29"
         transform="translate(-6.879167)">
        <path
           style="font-weight:bold;font-size:14.1111px;font-family:Georgia;-inkscape-font-specification:'Georgia Bold';fill:#0d0208;fill-opacity:1"
           d="m 122.40299,17.0836 -0.29628,-0.358289 q 0.59256,-0.840603 1.17822,-1.660534 0.58567,-0.813042 0.9164,-1.219563 0.19981,-0.254938 0.43408,-0.37896 0.23426,-0.124024 0.57188,-0.124024 0.33073,0 0.55122,0.117133 0.22048,0.124023 0.43408,0.385851 0.37896,0.461642 0.9095,1.212673 0.53744,0.75103 1.19201,1.667424 l -0.29628,0.358289 -2.81809,-2.122176 z"
           id="path14" />
        <path
           d="m 547.99219,49.15625 h 3.94531 v 19.492187 q 0,4.257813 0.82031,5.722657 0.83985,1.445312 2.59766,2.207031 1.75781,0.761719 3.92578,0.761719 2.08984,0 3.69141,-0.761719 1.62109,-0.761719 2.40234,-2.402344 0.80078,-1.660156 0.80078,-6.914062 V 49.15625 h 3.63281 v 19.121094 q 0,5.3125 -1.23047,7.460937 -1.21093,2.148438 -3.51562,3.398438 -2.30469,1.25 -5.80078,1.25 -3.24219,0 -5.9375,-0.996094 -2.69531,-0.996094 -4.02344,-3.085938 -1.30859,-2.109375 -1.30859,-7.128906 z m 30.44922,38.789062 h -3.63282 V 57.652344 h 3.63282 v 3.789062 q 1.13281,-1.933594 2.14843,-2.734375 1.03516,-0.800781 2.32422,-1.230469 1.28906,-0.429687 2.65625,-0.429687 2.5,0 4.57031,1.367187 2.07032,1.347657 3.20313,4.042969 1.15234,2.695313 1.15234,6.054688 0,4.980468 -2.40234,8.28125 -2.38281,3.28125 -6.69922,3.28125 -1.38672,0 -2.63672,-0.410157 -1.23047,-0.390625 -2.1875,-1.171875 -0.95703,-0.800781 -2.1289,-2.832031 z m 0,-19.375 q 0,3.710938 1.60156,6.09375 1.60156,2.382813 4.51172,2.382813 2.65625,0 4.41406,-2.109375 1.75781,-2.109375 1.75781,-6.308594 0,-4.902344 -1.85547,-6.796875 -1.85547,-1.914062 -4.23828,-1.914062 -1.71875,0 -3.22265,1.054687 -1.48438,1.035156 -2.22657,3.105469 -0.74218,2.050781 -0.74218,4.492187 z"
           id="text19"
           style="font-size:40px;font-family:Geneva;-inkscape-font-specification:Geneva;white-space:pre;fill:#0d0208;stroke-width:3.77953"
           transform="matrix(0.26458333,0,0,0.26458333,-8.7188195,-2.924479)"
           aria-label="Up" />
      </g>
      <g
         id="g28"
         transform="translate(-6.879167,2.0718815)">
        <path
           style="font-weight:bold;font-size:14.1111px;font-family:Georgia;-inkscape-font-specification:'Georgia Bold';fill:#0d0208;fill-opacity:1"
           d="m 127.99782,28.869692 0.29628,0.358289 q -0.59256,0.840603 -1.17822,1.660534 -0.58567,0.813042 -0.9164,1.219563 -0.19981,0.254938 -0.43408,0.37896 -0.23426,0.124024 -0.57188,0.124024 -0.33073,0 -0.55122,-0.117133 -0.22048,-0.124023 -0.43408,-0.385851 -0.37896,-0.461642 -0.9095,-1.212673 -0.53744,-0.75103 -1.19201,-1.667424 l 0.29628,-0.358289 2.81809,2.122176 z"
           id="path15" />
        <path
           d="m 548.44141,79.46875 v -30.3125 h 8.3789 q 6.11328,0 8.94531,1.660156 2.83204,1.660156 4.41407,5.078125 1.60156,3.398438 1.60156,8.300781 0,4.589844 -1.44531,7.96875 -1.42578,3.359375 -4.33594,5.332032 -2.91016,1.972656 -8.63281,1.972656 z m 3.94531,-3.339844 h 4.64844 q 4.16015,0 6.26953,-1.210937 2.1289,-1.230469 3.24218,-3.828125 1.13282,-2.617188 1.13282,-6.5625 0,-3.945313 -1.03516,-6.777344 -1.01562,-2.851563 -3.125,-4.199219 -2.08984,-1.347656 -6.58203,-1.347656 h -4.55078 z m 33.33984,3.945313 q -4.27734,0 -7.30469,-2.890625 -3.00781,-2.910157 -3.00781,-8.632813 0,-5.703125 3.00781,-8.59375 3.02735,-2.910156 7.30469,-2.910156 4.25781,0 7.26563,2.910156 3.02734,2.890625 3.02734,8.59375 0,5.722656 -3.02734,8.632813 -3.00782,2.890625 -7.26563,2.890625 z m 0,-3.027344 q 2.92969,0 4.70703,-2.324219 1.79688,-2.34375 1.79688,-6.171875 0,-3.808594 -1.79688,-6.132812 -1.77734,-2.34375 -4.70703,-2.34375 -2.94922,0 -4.74609,2.34375 -1.77735,2.324218 -1.77735,6.132812 0,3.828125 1.77735,6.171875 1.79687,2.324219 4.74609,2.324219 z m 18.94531,2.421875 -6.23046,-21.816406 H 602.25 l 3.84766,13.574218 0.50781,3.242188 h 0.41015 l 0.56641,-3.242188 3.88672,-13.574218 h 3.65234 l 4.33594,13.535156 0.74219,3.28125 h 0.39062 l 0.56641,-3.28125 3.84766,-13.535156 h 3.4375 l -6.23047,21.816406 h -3.67188 l -4.49219,-14.257813 -0.60546,-3.164062 h -0.3125 l -0.64454,3.164062 -4.12109,14.257813 z m 30.87891,0 h -3.63281 V 57.652344 h 3.63281 v 3.769531 q 1.15234,-1.777344 2.22656,-2.636719 1.09375,-0.859375 2.26563,-1.289062 1.1914,-0.449219 2.63672,-0.449219 2.05078,0 3.67187,0.839844 1.64063,0.839843 2.53906,2.480468 0.89844,1.621094 0.89844,5.214844 V 79.46875 h -3.63281 V 67.144531 q 0,-2.929687 -0.39063,-4.140625 -0.39062,-1.230469 -1.52343,-1.914062 -1.13282,-0.703125 -2.46094,-0.703125 -1.60156,0 -3.04688,0.9375 -1.44531,0.9375 -2.32421,2.617187 -0.85938,1.679688 -0.85938,4.804688 z"
           id="text20"
           style="font-size:40px;font-family:Geneva;-inkscape-font-specification:Geneva;white-space:pre;fill:#0d0208;stroke-width:3.77953"
           transform="matrix(0.26458333,0,0,0.26458333,-8.8376753,13.644263)"
           aria-label="Down" />
      </g>
      <g
         id="g27"
         transform="translate(-6.879167,3.1636317)">
        <path
           style="font-weight:bold;font-size:14.1111px;font-family:Georgia;-inkscape-font-specification:'Georgia Bold';fill:#0d0208;fill-opacity:1"
           d="m 123.32972,44.693434 0.35829,-0.29628 q 0.8406,0.59256 1.66053,1.17822 0.81305,0.58567 1.21957,0.9164 0.25493,0.19981 0.37896,0.43408 0.12402,0.23426 0.12402,0.57188 0,0.33073 -0.11713,0.55122 -0.12403,0.22048 -0.38585,0.43408 -0.46165,0.37896 -1.21268,0.9095 -0.75103,0.53744 -1.66742,1.19201 l -0.35829,-0.29628 2.12218,-2.81809 z"
           id="path16" />
        <path
           d="m 552.38672,79.46875 h -3.94531 v -30.3125 h 9.375 q 3.45703,0 5.19531,0.996094 1.73828,0.996093 2.7539,2.890625 1.01563,1.875 1.01563,4.082031 0,1.777344 -0.68359,3.417969 -0.6836,1.621093 -1.9336,2.949218 -1.23047,1.308594 -3.82812,2.34375 0.97656,0.546875 1.46484,1.035157 0.48828,0.488281 1.19141,1.582031 0.70312,1.09375 1.23047,2.050781 l 4.82421,8.964844 h -4.51171 L 560.33594,71.5 q -1.52344,-2.890625 -3.96485,-5.058594 h -3.98437 z m 0,-16.054688 h 3.84765 q 2.44141,0 3.69141,-0.742187 1.26953,-0.761719 2.01172,-2.1875 0.74219,-1.445313 0.74219,-3.085938 0,-1.425781 -0.58594,-2.539062 -0.58594,-1.132813 -1.71875,-1.894531 -1.13281,-0.761719 -3.84766,-0.761719 h -4.14062 z m 20.29297,-5.761718 h 3.63281 V 79.46875 h -3.63281 z m 0,-4.84375 V 49.15625 h 3.63281 v 3.652344 z m 24.39453,22.050781 q -1.11328,2.304687 -2.89063,3.457031 -1.77734,1.152344 -4.21875,1.152344 -3.88672,0 -6.42578,-3.046875 -2.51953,-3.066406 -2.51953,-8.046875 0,-3.28125 1.13281,-5.976563 1.13282,-2.695312 3.1836,-4.023437 2.05078,-1.328125 4.80468,-1.328125 2.05079,0 3.67188,0.820312 1.62109,0.800782 3.26172,3.28125 v -3.496093 h 3.63281 v 17.832031 q 0,6.71875 -1.40625,8.867187 -1.40625,2.148438 -3.57422,3.183594 -2.14844,1.035156 -5.05859,1.035156 -2.69531,0 -4.84375,-0.800781 -2.12891,-0.800781 -3.24219,-2.207031 -1.11328,-1.386719 -1.11328,-2.890625 v -0.332031 h 3.63281 v 0.3125 q 0,1.445312 1.5625,2.304687 1.5625,0.878906 3.96485,0.878906 1.95312,0 3.33984,-0.683593 1.40625,-0.664063 2.24609,-2.1875 0.85938,-1.503907 0.85938,-5.488282 z m 0,-6.953125 q 0,-3.496094 -1.79688,-5.664063 -1.79687,-2.167968 -4.29687,-2.167968 -2.65625,0 -4.41406,2.1875 -1.75782,2.1875 -1.75782,6.152343 0,2.5 0.70313,4.375 0.70312,1.875 2.1875,2.851563 1.5039,0.957031 3.20312,0.957031 2.75391,0 4.45313,-2.421875 1.71875,-2.441406 1.71875,-6.269531 z m 13.02734,11.5625 h -3.63281 V 47.945312 h 3.63281 v 13.476563 q 1.15235,-1.777344 2.22656,-2.636719 1.09375,-0.859375 2.26563,-1.289062 1.19141,-0.449219 2.63672,-0.449219 2.05078,0 3.67187,0.839844 1.64063,0.839843 2.53907,2.480468 0.89843,1.621094 0.89843,5.214844 V 79.46875 h -3.63281 V 67.144531 q 0,-2.929687 -0.39062,-4.140625 -0.39063,-1.230469 -1.48438,-1.914062 -1.09375,-0.703125 -2.5,-0.703125 -1.60156,0 -3.04687,0.9375 -1.44532,0.9375 -2.32422,2.617187 -0.85938,1.679688 -0.85938,4.804688 z m 33.04688,-3.085938 v 3.046875 q -2.65625,0.644532 -4.0625,0.644532 -2.03125,0 -3.67188,-0.820313 -1.62109,-0.820312 -2.48047,-2.382812 -0.83984,-1.5625 -0.83984,-4.980469 V 60.679687 h -3.78906 v -3.027343 h 3.78906 v -5.15625 h 3.63281 v 5.15625 h 6.36719 v 3.027343 h -6.36719 v 10.175782 q 0,2.890625 0.44922,4.023437 0.44922,1.113281 1.40625,1.640625 0.97656,0.527344 2.32422,0.527344 1.07422,0 3.24219,-0.664063 z"
           id="text21"
           style="font-size:40px;font-family:Geneva;-inkscape-font-specification:Geneva;white-space:pre;fill:#0d0208;stroke-width:3.77953"
           transform="matrix(0.26458333,0,0,0.26458333,-8.8376753,29.43097)"
           aria-label="Right" />
      </g>
      <g
         id="g26"
         transform="translate(-6.879167,3.1925686)">
        <path
           style="font-weight:bold;font-size:14.1111px;font-family:Georgia;-inkscape-font-specification:'Georgia Bold';fill:#0d0208;fill-opacity:1"
           d="m 127.07109,68.261747 -0.35829,0.29628 q -0.8406,-0.59256 -1.66053,-1.17822 -0.81305,-0.58567 -1.21957,-0.9164 -0.25493,-0.19981 -0.37896,-0.43408 -0.12402,-0.23426 -0.12402,-0.57188 0,-0.33073 0.11713,-0.55122 0.12403,-0.22048 0.38585,-0.43408 0.46165,-0.37896 1.21268,-0.9095 0.75103,-0.53744 1.66742,-1.19201 l 0.35829,0.29628 -2.12218,2.81809 z"
           id="path17" />
        <path
           d="m 548.44141,79.46875 v -30.3125 h 3.94531 v 26.972656 h 15.89844 v 3.339844 z m 37.59765,-5.605469 h 3.63281 v 0.195313 q 0,1.445312 -1.15234,2.949218 -1.15234,1.503907 -3.04687,2.285157 -1.89454,0.78125 -4.35547,0.78125 -4.98047,0 -7.69532,-3.222657 -2.69531,-3.222656 -2.69531,-8.144531 0,-5.039062 2.85156,-8.339844 2.8711,-3.320312 7.38282,-3.320312 2.48047,0 4.49218,1.074219 2.01172,1.074218 3.1836,3.359375 1.17187,2.265625 1.17187,6.328125 v 1.210937 h -15.48828 q 0,3.496094 1.875,5.761719 1.89453,2.265625 5.23438,2.265625 2.40234,0 3.49609,-0.917969 1.11328,-0.9375 1.11328,-2.070312 z m -11.48437,-7.578125 h 11.77734 v -0.429687 q 0,-1.523438 -0.74219,-2.949219 -0.72265,-1.445313 -2.01172,-2.128906 -1.28906,-0.703125 -3.00781,-0.703125 -2.03125,0 -3.75,1.640625 -1.71875,1.621093 -2.26562,4.570312 z m 25.85937,13.183594 h -3.63281 V 60.679687 h -3.18359 v -3.027343 h 3.18359 v -1.015625 q 0,-4.746094 1.99219,-6.71875 2.01172,-1.972657 5.23437,-1.972657 1.21094,0 3.06641,0.273438 v 2.96875 q -1.52344,-0.195313 -2.44141,-0.195313 -1.75781,0 -2.98828,0.859375 -1.23047,0.859375 -1.23047,4.101563 v 1.699219 h 6.36719 v 3.027343 h -6.36719 z m 23.33985,-3.085938 v 3.046875 q -2.65625,0.644532 -4.0625,0.644532 -2.03125,0 -3.67188,-0.820313 -1.62109,-0.820312 -2.48047,-2.382812 -0.83984,-1.5625 -0.83984,-4.980469 V 60.679687 h -3.78906 v -3.027343 h 3.78906 v -5.15625 h 3.63281 v 5.15625 h 6.36719 v 3.027343 h -6.36719 v 10.175782 q 0,2.890625 0.44922,4.023437 0.44922,1.113281 1.40625,1.640625 0.97656,0.527344 2.32422,0.527344 1.07422,0 3.24219,-0.664063 z"
           id="text22"
           style="font-size:40px;font-family:Geneva;-inkscape-font-specification:Geneva;white-space:pre;fill:#0d0208;stroke-width:3.77953"
           transform="matrix(0.26458333,0,0,0.26458333,-8.8376753,48.528415)"
           aria-label="Left" />
      </g>
      <g
         id="g25"
         transform="translate(-6.879167,1.7633668)">
        <path
           d="m -122.23074,-81.30875 -0.35829,0.296278 q -0.8406,-0.592556 -1.66053,-1.178222 -0.81304,-0.585665 -1.21956,-0.916394 -0.25494,-0.199816 -0.37897,-0.434082 -0.12402,-0.234266 -0.12402,-0.571885 0,-0.330729 0.11713,-0.551215 0.12403,-0.220486 0.38586,-0.434082 0.46164,-0.37896 1.21267,-0.909504 0.75103,-0.537435 1.66742,-1.192003 l 0.35829,0.296278 -2.12217,2.818086 z m -3.02479,0 -0.35829,0.296278 q -0.8406,-0.592556 -1.66053,-1.178222 -0.81305,-0.585665 -1.21957,-0.916394 -0.25493,-0.199816 -0.37896,-0.434082 -0.12402,-0.234266 -0.12402,-0.571885 0,-0.330729 0.11713,-0.551215 0.12403,-0.220486 0.38585,-0.434082 0.46165,-0.37896 1.21268,-0.909504 0.75103,-0.537435 1.66742,-1.192003 l 0.35829,0.296278 -2.12218,2.818086 z"
           id="text17"
           style="font-weight:bold;font-size:14.1111px;font-family:Georgia;-inkscape-font-specification:'Georgia Bold';fill:#0d0208"
           transform="scale(-1)"
           aria-label="« " />
        <path
           d="m 548.44141,79.46875 v -30.3125 h 17.1289 v 3.339844 h -13.18359 v 10.449218 h 11.5039 v 3.046875 h -11.5039 V 79.46875 Z m 31.38671,0.605469 q -4.27734,0 -7.30468,-2.890625 -3.00782,-2.910157 -3.00782,-8.632813 0,-5.703125 3.00782,-8.59375 3.02734,-2.910156 7.30468,-2.910156 4.25782,0 7.26563,2.910156 3.02734,2.890625 3.02734,8.59375 0,5.722656 -3.02734,8.632813 -3.00781,2.890625 -7.26563,2.890625 z m 0,-3.027344 q 2.92969,0 4.70704,-2.324219 1.79687,-2.34375 1.79687,-6.171875 0,-3.808594 -1.79687,-6.132812 -1.77735,-2.34375 -4.70704,-2.34375 -2.94921,0 -4.74609,2.34375 -1.77734,2.324218 -1.77734,6.132812 0,3.828125 1.77734,6.171875 1.79688,2.324219 4.74609,2.324219 z m 18.61329,2.421875 h -3.63282 V 57.652344 h 3.63282 V 61.5 q 0.89843,-1.660156 1.95312,-2.578125 1.07422,-0.917969 2.26563,-1.386719 1.21093,-0.488281 2.46093,-0.488281 1.13282,0 1.95313,0.332031 v 3.769531 q -1.28906,-0.625 -2.73438,-0.625 -2.05078,0 -3.98437,1.796875 -1.91406,1.796875 -1.91406,6.367188 z m 15.78125,0 -6.23047,-21.816406 h 3.80859 l 3.84766,13.574218 0.50781,3.242188 h 0.41016 l 0.5664,-3.242188 3.88672,-13.574218 h 3.65234 l 4.33594,13.535156 0.74219,3.28125 h 0.39062 l 0.56641,-3.28125 3.84766,-13.535156 h 3.4375 l -6.23047,21.816406 h -3.67188 l -4.49218,-14.257813 -0.60547,-3.164062 h -0.3125 l -0.64453,3.164062 -4.1211,14.257813 z m 40.70312,0 q -0.56641,-1.757813 -0.56641,-3.027344 -2.38281,2.363281 -4.08203,3.007813 -1.67968,0.625 -3.22265,0.625 -2.59766,0 -4.47266,-1.582032 -1.85547,-1.601562 -1.85547,-4.394531 0,-3.164062 2.61719,-4.882812 2.63672,-1.71875 9.0625,-2.96875 L 654.35937,65.875 v -2.460938 q 0,-2.011718 -1.34765,-2.8125 -1.34766,-0.820312 -3.24219,-0.820312 -2.26562,0 -3.53516,0.996094 -1.26953,0.996093 -1.26953,2.324218 v 0.3125 h -3.94531 v -0.292968 q 0,-1.445313 1.21094,-2.988282 1.23047,-1.542968 3.24219,-2.324218 2.03125,-0.78125 4.43359,-0.78125 2.38281,0 4.33594,0.742187 1.95312,0.742188 2.85156,2.011719 0.89844,1.25 0.89844,4.726562 v 8.476563 q 0,1.386719 0.0586,2.929687 0.0781,1.523438 0.70313,3.554688 z m -0.56641,-11.015625 -1.09375,0.273437 q -5.52734,1.347657 -7.07031,2.558594 -1.54297,1.210938 -1.54297,2.890625 0,0.859375 0.44922,1.601563 0.46875,0.742187 1.36719,1.152343 0.89844,0.410157 1.77734,0.410157 1.52344,0 2.98828,-0.878907 1.48438,-0.898437 2.30469,-2.382812 0.82031,-1.484375 0.82031,-3.457031 z m 12.8711,11.015625 h -3.63281 V 57.652344 h 3.63281 V 61.5 q 0.89844,-1.660156 1.95312,-2.578125 1.07422,-0.917969 2.26563,-1.386719 1.21094,-0.488281 2.46094,-0.488281 1.13281,0 1.95312,0.332031 v 3.769531 q -1.28906,-0.625 -2.73437,-0.625 -2.05079,0 -3.98438,1.796875 -1.91406,1.796875 -1.91406,6.367188 z m 26.8164,-31.523438 h 3.63282 V 79.46875 h -3.63282 v -3.789063 q -1.11328,2.109375 -2.16796,2.929688 -1.05469,0.820312 -2.38282,1.132812 -1.30859,0.332032 -2.59765,0.332032 -2.46094,0 -4.53125,-1.347657 -2.07032,-1.367187 -3.22266,-4.0625 -1.15234,-2.695312 -1.15234,-6.054687 0,-4.980469 2.40234,-8.261719 2.40234,-3.300781 6.69922,-3.300781 1.40625,0 2.63672,0.410156 1.23047,0.390625 2.1875,1.191406 0.97656,0.78125 2.1289,2.8125 z m 0,20.605469 q 0,-3.710937 -1.60156,-6.09375 -1.60156,-2.382812 -4.49219,-2.382812 -2.65625,0 -4.41406,2.109375 -1.75781,2.109375 -1.75781,6.308593 0,4.902344 1.69922,6.816407 1.69922,1.894531 4.375,1.894531 1.73828,0 3.22265,-1.054688 1.50391,-1.054687 2.22657,-3.105468 0.74218,-2.050782 0.74218,-4.492188 z"
           id="text23"
           style="font-size:40px;font-family:Geneva;-inkscape-font-specification:Geneva;white-space:pre;fill:#0d0208;stroke-width:3.77953"
           transform="matrix(0.26458333,0,0,0.26458333,-8.8376753,66.836074)"
           aria-label="Forward" />
      </g>
      <g
         id="g24"
         transform="translate(-6.879167)">
        <path
           d="m 128.17007,104.87706 -0.35829,0.29627 q -0.8406,-0.59255 -1.66053,-1.17822 -0.81304,-0.58566 -1.21956,-0.91639 -0.25494,-0.19982 -0.37896,-0.43408 -0.12403,-0.23427 -0.12403,-0.57189 0,-0.33073 0.11714,-0.55121 0.12402,-0.22049 0.38585,-0.43409 0.46164,-0.37896 1.21267,-0.9095 0.75103,-0.537435 1.66742,-1.192002 l 0.35829,0.296278 -2.12217,2.818084 z m -3.02479,0 -0.35829,0.29627 q -0.8406,-0.59255 -1.66053,-1.17822 -0.81305,-0.58566 -1.21957,-0.91639 -0.25493,-0.19982 -0.37896,-0.43408 -0.12402,-0.23427 -0.12402,-0.57189 0,-0.33073 0.11713,-0.55121 0.12403,-0.22049 0.38585,-0.43409 0.46165,-0.37896 1.21268,-0.9095 0.75103,-0.537435 1.66742,-1.192002 l 0.35829,0.296278 -2.12218,2.818084 z"
           id="text18"
           style="font-weight:bold;font-size:14.1111px;font-family:Georgia;-inkscape-font-specification:'Georgia Bold';fill:#0d0208"
           aria-label="« " />
        <path
           d="m 562.07422,63.53125 q 3.59375,0.878906 5.19531,2.96875 1.62109,2.070312 1.62109,4.6875 0,2.167969 -1.11328,4.082031 -1.11328,1.914063 -3.16406,3.066406 -2.05078,1.132813 -7.08984,1.132813 h -9.08203 v -30.3125 h 8.04687 q 5.50781,0 7.38281,0.800781 1.89453,0.78125 2.85157,2.324219 0.95703,1.542969 0.95703,3.417969 0,2.089843 -1.21094,4.160156 -1.21094,2.050781 -4.39453,3.671875 z m -9.6875,-1.191406 h 3.78906 q 2.92969,0 4.375,-0.78125 1.46484,-0.78125 2.32422,-2.226563 0.87891,-1.464844 0.87891,-3.007812 0,-1.699219 -1.36719,-2.910157 -1.34766,-1.210937 -4.88281,-1.210937 h -5.11719 z m 0,14.101562 h 5.5664 q 3.94532,0 5.39063,-1.464844 1.46484,-1.484375 1.46484,-3.496093 0,-1.621094 -0.9375,-2.988282 -0.9375,-1.367187 -2.79297,-2.226562 -1.83593,-0.878906 -5.76171,-0.878906 h -2.92969 z m 34.96094,3.027344 q -0.56641,-1.757813 -0.56641,-3.027344 -2.38281,2.363281 -4.08203,3.007813 -1.67969,0.625 -3.22266,0.625 -2.59765,0 -4.47265,-1.582032 -1.85547,-1.601562 -1.85547,-4.394531 0,-3.164062 2.61718,-4.882812 2.63672,-1.71875 9.0625,-2.96875 L 586.78125,65.875 v -2.460938 q 0,-2.011718 -1.34766,-2.8125 -1.34765,-0.820312 -3.24218,-0.820312 -2.26563,0 -3.53516,0.996094 -1.26953,0.996093 -1.26953,2.324218 v 0.3125 h -3.94531 v -0.292968 q 0,-1.445313 1.21093,-2.988282 1.23047,-1.542968 3.24219,-2.324218 2.03125,-0.78125 4.43359,-0.78125 2.38282,0 4.33594,0.742187 1.95313,0.742188 2.85156,2.011719 0.89844,1.25 0.89844,4.726562 v 8.476563 q 0,1.386719 0.0586,2.929687 0.0781,1.523438 0.70312,3.554688 z m -0.56641,-11.015625 -1.09375,0.273437 q -5.52734,1.347657 -7.07031,2.558594 -1.54297,1.210938 -1.54297,2.890625 0,0.859375 0.44922,1.601563 0.46875,0.742187 1.36718,1.152343 0.89844,0.410157 1.77735,0.410157 1.52344,0 2.98828,-0.878907 1.48437,-0.898437 2.30469,-2.382812 0.82031,-1.484375 0.82031,-3.457031 z m 22.87109,5.410156 h 3.65235 v 0.195313 q 0,1.464843 -1.11328,2.949218 -1.09375,1.484375 -2.89063,2.285157 -1.77734,0.78125 -4.29687,0.78125 -4.82422,0 -7.44141,-3.046875 -2.59766,-3.066407 -2.59766,-8.476563 0,-5.390625 2.59766,-8.4375 2.61719,-3.066406 7.44141,-3.066406 2.51953,0 4.29687,0.800781 1.79688,0.78125 2.89063,2.167969 1.11328,1.367187 1.11328,3.046875 v 0.195312 h -3.65235 V 63.0625 q 0.0586,-1.191406 -1.05468,-2.089844 -1.09375,-0.898437 -3.39844,-0.898437 -2.73438,0 -4.58985,2.011718 -1.85546,2.011719 -1.85546,6.464844 0,4.472656 1.85546,6.484375 1.85547,2.011719 4.58985,2.011719 2.30469,0 3.3789,-0.898438 1.07422,-0.898437 1.07422,-2.089843 z M 621.625,79.46875 h -3.78906 V 47.945312 h 3.78906 v 20.097657 l 9.6875,-10.390625 h 4.19922 l -9.45313,10.136718 9.80469,11.679688 H 631.3125 L 621.625,68.042969 Z m 21.69922,0 -6.23047,-21.816406 h 3.80859 l 3.84766,13.574218 0.50781,3.242188 h 0.41016 l 0.5664,-3.242188 3.88672,-13.574218 h 3.65235 l 4.33593,13.535156 0.74219,3.28125 h 0.39063 l 0.5664,-3.28125 3.84766,-13.535156 h 3.4375 l -6.23047,21.816406 h -3.67187 l -4.49219,-14.257813 -0.60547,-3.164062 h -0.3125 l -0.64453,3.164062 -4.1211,14.257813 z m 40.70312,0 q -0.5664,-1.757813 -0.5664,-3.027344 -2.38282,2.363281 -4.08203,3.007813 -1.67969,0.625 -3.22266,0.625 -2.59766,0 -4.47266,-1.582032 -1.85547,-1.601562 -1.85547,-4.394531 0,-3.164062 2.61719,-4.882812 2.63672,-1.71875 9.0625,-2.96875 L 683.46094,65.875 v -2.460938 q 0,-2.011718 -1.34766,-2.8125 -1.34766,-0.820312 -3.24219,-0.820312 -2.26562,0 -3.53515,0.996094 -1.26953,0.996093 -1.26953,2.324218 v 0.3125 h -3.94532 v -0.292968 q 0,-1.445313 1.21094,-2.988282 1.23047,-1.542968 3.24219,-2.324218 2.03125,-0.78125 4.43359,-0.78125 2.38281,0 4.33594,0.742187 1.95312,0.742188 2.85156,2.011719 0.89844,1.25 0.89844,4.726562 v 8.476563 q 0,1.386719 0.0586,2.929687 0.0781,1.523438 0.70313,3.554688 z m -0.5664,-11.015625 -1.09375,0.273437 q -5.52735,1.347657 -7.07032,2.558594 -1.54296,1.210938 -1.54296,2.890625 0,0.859375 0.44921,1.601563 0.46875,0.742187 1.36719,1.152343 0.89844,0.410157 1.77735,0.410157 1.52343,0 2.98828,-0.878907 1.48437,-0.898437 2.30468,-2.382812 0.82032,-1.484375 0.82032,-3.457031 z m 12.87109,11.015625 h -3.63281 V 57.652344 h 3.63281 V 61.5 q 0.89844,-1.660156 1.95313,-2.578125 1.07421,-0.917969 2.26562,-1.386719 1.21094,-0.488281 2.46094,-0.488281 1.13281,0 1.95312,0.332031 v 3.769531 q -1.28906,-0.625 -2.73437,-0.625 -2.05078,0 -3.98438,1.796875 -1.91406,1.796875 -1.91406,6.367188 z m 26.81641,-31.523438 h 3.63281 V 79.46875 h -3.63281 v -3.789063 q -1.11328,2.109375 -2.16797,2.929688 -1.05469,0.820312 -2.38281,1.132812 -1.3086,0.332032 -2.59766,0.332032 -2.46094,0 -4.53125,-1.347657 -2.07031,-1.367187 -3.22266,-4.0625 -1.15234,-2.695312 -1.15234,-6.054687 0,-4.980469 2.40234,-8.261719 2.40235,-3.300781 6.69922,-3.300781 1.40625,0 2.63672,0.410156 1.23047,0.390625 2.1875,1.191406 0.97656,0.78125 2.12891,2.8125 z m 0,20.605469 q 0,-3.710937 -1.60157,-6.09375 -1.60156,-2.382812 -4.49218,-2.382812 -2.65625,0 -4.41407,2.109375 -1.75781,2.109375 -1.75781,6.308593 0,4.902344 1.69922,6.816407 1.69922,1.894531 4.375,1.894531 1.73828,0 3.22266,-1.054688 1.5039,-1.054687 2.22656,-3.105468 0.74219,-2.050782 0.74219,-4.492188 z"
           id="text24"
           style="font-size:40px;font-family:Geneva;-inkscape-font-specification:Geneva;white-space:pre;fill:#0d0208;stroke-width:3.77953"
           transform="matrix(0.26458333,0,0,0.26458333,-8.8376753,85.477898)"
           aria-label="Backward" />
      </g>
    </g>
  </g>
</svg>
